<svg width="24" height="24" viewBox="0 0 24 24" fill="none" xmlns="http://www.w3.org/2000/svg">
<g clip-path="url(#clip0_87_1008)">
<path d="M11.0714 7.35597C11.128 6.63272 10.9918 5.90737 10.6767 5.25471C10.1553 5.753 9.53888 6.1399 8.8647 6.39207C8.9189 7.06127 8.88888 7.73468 8.77533 8.39631C9.59573 8.18852 10.3731 7.8363 11.0714 7.35597ZM8.11173 8.53113C8.24512 7.8898 8.29175 7.23329 8.25038 6.57939C7.85281 6.67473 7.43811 6.72513 7.01172 6.72513C6.58533 6.72513 6.17064 6.67473 5.77307 6.57939C5.73266 7.23328 5.77929 7.88967 5.91171 8.53113C6.6408 8.64352 7.38265 8.64352 8.11173 8.53113ZM6.08127 9.19011C6.69942 9.26367 7.32403 9.26367 7.94218 9.19011C7.72973 9.8779 7.4161 10.5298 7.01172 11.1242C6.60733 10.5298 6.29371 9.8779 6.08127 9.19011ZM5.24812 8.39673C5.13396 7.73488 5.10393 7.06112 5.15875 6.39165C4.48441 6.13954 3.86785 5.75264 3.34628 5.25429C3.03132 5.90711 2.89523 6.63262 2.95205 7.35597C3.65037 7.8363 4.42772 8.18894 5.24812 8.39673ZM10.919 8.19597C10.7081 8.91457 10.3056 9.56135 9.75501 10.0661C9.20446 10.5708 8.52694 10.9143 7.79601 11.0591C8.16206 10.4401 8.44144 9.77333 8.62624 9.07755C9.43203 8.9077 10.2059 8.61028 10.919 8.19639V8.19597ZM3.10448 8.19597C3.80692 8.60379 4.57868 8.90493 5.39721 9.07755C5.58201 9.77333 5.86138 10.4401 6.22743 11.0591C5.49656 10.9143 4.81907 10.5709 4.26853 10.0663C3.71798 9.5616 3.3154 8.91491 3.10448 8.19639V8.19597ZM7.79601 3.02073C8.83076 3.22528 9.74632 3.82538 10.3502 4.69485C9.90443 5.14777 9.37233 5.50549 8.78577 5.74653C8.62773 4.78382 8.29204 3.85932 7.79601 3.02073ZM7.01172 2.95605C7.6212 3.85154 8.02164 4.87393 8.18314 5.94687C7.80854 6.04347 7.41598 6.09513 7.01172 6.09513C6.60747 6.09513 6.21491 6.04389 5.8403 5.94687C6.00179 4.87392 6.40223 3.85153 7.01172 2.95605ZM6.22743 3.02073C5.7314 3.85932 5.39571 4.78382 5.23768 5.74653C4.65111 5.5055 4.11901 5.14778 3.67328 4.69485C4.27717 3.82551 5.19274 3.22513 6.22743 3.02073Z" fill="url(#paint0_linear_87_1008)"/>
</g>
<path d="M2 14C2 9.58172 5.58172 6 10 6H12.8984C16.1679 6 18.8184 8.65048 18.8184 11.92C18.8184 15.1895 16.1679 17.84 12.8984 17.84H6.69232C5.45976 17.84 4.25409 18.2004 3.22369 18.8767L3.13693 18.9337C2.64876 19.2541 2 18.904 2 18.32V14Z" fill="white"/>
<rect width="9.24254" height="1.6" rx="0.8" transform="matrix(-1 0 0 1 13.2124 8.08008)" fill="#D9D9D9"/>
<rect width="9.24254" height="1.6" rx="0.8" transform="matrix(-1 0 0 1 13.2124 8.08008)" fill="url(#paint1_linear_87_1008)"/>
<rect width="5.90916" height="1.6" rx="0.8" transform="matrix(-1 0 0 1 9.87891 10.9604)" fill="url(#paint2_linear_87_1008)"/>
<path d="M21.5085 13.1875C21.5085 14.5335 19.505 15.625 17.0341 15.625C14.5631 15.625 12.5596 14.5335 12.5596 13.1875C12.5596 11.8415 14.5631 10.75 17.0341 10.75C19.505 10.75 21.5085 11.8415 21.5085 13.1875Z" fill="url(#paint3_linear_87_1008)"/>
<path d="M17.0341 16.3749C18.3689 16.3749 19.6143 16.0819 20.553 15.5704C20.8984 15.386 21.216 15.153 21.4961 14.8784C21.5041 14.9389 21.5085 15.0004 21.5085 15.0624C21.5085 16.4084 19.505 17.4999 17.0341 17.4999C14.5631 17.4999 12.5596 16.4084 12.5596 15.0624C12.5596 15.0004 12.564 14.9389 12.572 14.8784C12.8521 15.1529 13.1697 15.386 13.5151 15.5704C14.4533 16.0819 15.6992 16.3749 17.0341 16.3749Z" fill="url(#paint4_linear_87_1008)"/>
<path d="M17.0341 18.2499C18.3689 18.2499 19.6143 17.9569 20.553 17.4454C20.8985 17.261 21.216 17.028 21.4961 16.7534C21.5041 16.8139 21.5085 16.8754 21.5085 16.9374C21.5085 18.2834 19.505 19.3749 17.0341 19.3749C14.5631 19.3749 12.5596 18.2834 12.5596 16.9374C12.5596 16.8754 12.564 16.8139 12.572 16.7534C12.8521 17.028 13.1697 17.261 13.5151 17.4454C14.4533 17.9569 15.6992 18.2499 17.0341 18.2499Z" fill="url(#paint5_linear_87_1008)"/>
<path d="M17.0341 20.1249C18.3689 20.1249 19.6143 19.8319 20.553 19.3204C20.8985 19.136 21.216 18.903 21.4961 18.6284C21.5041 18.6889 21.5085 18.7504 21.5085 18.8124C21.5085 20.1584 19.505 21.2499 17.0341 21.2499C14.5631 21.2499 12.5596 20.1584 12.5596 18.8124C12.5596 18.7504 12.564 18.6889 12.572 18.6284C12.8521 18.903 13.1697 19.136 13.5151 19.3204C14.4533 19.8319 15.6992 20.1249 17.0341 20.1249Z" fill="url(#paint6_linear_87_1008)"/>
<defs>
<linearGradient id="paint0_linear_87_1008" x1="7.01168" y1="2.95605" x2="7.01168" y2="11.1242" gradientUnits="userSpaceOnUse">
<stop stop-color="#7DFF4F"/>
<stop offset="1" stop-color="#C9FFB6"/>
</linearGradient>
<linearGradient id="paint1_linear_87_1008" x1="0" y1="0.853333" x2="9.24254" y2="0.853333" gradientUnits="userSpaceOnUse">
<stop offset="0.286831" stop-color="white"/>
<stop offset="1"/>
</linearGradient>
<linearGradient id="paint2_linear_87_1008" x1="0" y1="0.853333" x2="5.90916" y2="0.853333" gradientUnits="userSpaceOnUse">
<stop offset="0.286831" stop-color="white"/>
<stop offset="1"/>
</linearGradient>
<linearGradient id="paint3_linear_87_1008" x1="12.5596" y1="13.1875" x2="21.5085" y2="13.1875" gradientUnits="userSpaceOnUse">
<stop stop-color="#D0FFBF"/>
<stop offset="1" stop-color="#79FF4A"/>
</linearGradient>
<linearGradient id="paint4_linear_87_1008" x1="12.5596" y1="16.1892" x2="21.5085" y2="16.1892" gradientUnits="userSpaceOnUse">
<stop stop-color="#D0FFBF"/>
<stop offset="1" stop-color="#79FF4A"/>
</linearGradient>
<linearGradient id="paint5_linear_87_1008" x1="12.5596" y1="18.0642" x2="21.5085" y2="18.0642" gradientUnits="userSpaceOnUse">
<stop stop-color="#D0FFBF"/>
<stop offset="1" stop-color="#79FF4A"/>
</linearGradient>
<linearGradient id="paint6_linear_87_1008" x1="12.5596" y1="19.9392" x2="21.5085" y2="19.9392" gradientUnits="userSpaceOnUse">
<stop stop-color="#D0FFBF"/>
<stop offset="1" stop-color="#79FF4A"/>
</linearGradient>
<clipPath id="clip0_87_1008">
<rect width="9.54557" height="10.08" fill="white" transform="translate(2 2)"/>
</clipPath>
</defs>
</svg>
